<svg width="157" height="225" viewBox="0 0 157 225" fill="none" preserveAspectRatio="none" xmlns="http://www.w3.org/2000/svg">
<path d="M44.8452 189.318C40.0216 179.991 39.094 167.951 42.012 155.638C39.8957 155.169 37.8123 154.591 35.7794 153.911C25.2673 150.402 16.5559 144.245 10.5759 136.102C3.0772 125.885 -0.399346 112.352 0.529294 96.9547C1.37545 82.8722 5.97996 67.6435 13.4791 54.0692C22.8544 37.1066 39.9004 17.5919 60.2445 0.541473L61.2384 1.71895C41.0306 18.6568 24.1098 38.016 14.8085 54.8336C7.4109 68.2145 2.87609 83.2207 2.03929 97.0829C1.13367 112.117 4.50895 125.304 11.7881 135.222C17.5763 143.1 26.0267 149.068 36.2263 152.472C38.2283 153.139 40.2809 153.706 42.3708 154.167C43.2331 150.875 44.3708 147.565 45.774 144.292C51.6075 130.742 61.7524 117.761 75.9224 105.716C88.6906 94.8693 101.285 87.8208 113.368 84.7684C119.799 83.1444 125.137 82.9265 129.694 84.0952C135.367 85.5569 139.634 89.3635 141.112 94.2777C142.383 98.5131 142.638 107.371 130.884 120.24C130.315 120.864 129.719 121.498 129.094 122.137C110.98 140.693 89.4202 152.807 68.3981 156.247C59.9413 157.631 51.4663 157.519 43.4976 155.948C40.643 167.927 41.5211 179.619 46.185 188.637C50.5728 197.116 58.114 203.431 68.5997 207.398C77.665 210.829 88.68 212.353 100.443 211.797C115.881 211.065 132.009 206.524 152.595 197.093L122.29 185.556L122.806 184.131L156.654 197.015L135.981 224.549L134.751 223.621L153.827 198.211C132.781 207.908 116.323 212.572 100.541 213.317C88.5664 213.885 77.3421 212.325 68.0783 208.819C57.2219 204.709 49.3992 198.145 44.8275 189.31L44.8452 189.318ZM68.1333 154.746C88.8429 151.356 110.104 139.394 127.998 121.062C133.592 115.33 142.544 104.285 139.662 94.6868C138.343 90.302 134.491 86.8907 129.348 85.5701C125.05 84.4656 119.953 84.6836 113.778 86.2469C101.917 89.2397 89.5238 96.1862 76.9331 106.885C72.3635 110.765 68.2225 114.742 64.5137 118.803C56.856 127.188 51.0533 135.926 47.182 144.916C45.8121 148.088 44.7158 151.289 43.8736 154.477C51.6362 155.99 59.8907 156.097 68.1333 154.746Z" fill="#01928E"/>
</svg>
