<svg width="24" height="24" viewBox="0 0 24 24" fill="none" xmlns="http://www.w3.org/2000/svg">
<path fill-rule="evenodd" clip-rule="evenodd" d="M7.05217 0.0722133C8.33205 0.0138139 8.74069 0 11.9996 0C15.2585 0 15.6671 0.0138139 16.947 0.0722133C18.2242 0.13047 19.0965 0.333343 19.8598 0.630008C20.6488 0.936629 21.318 1.34695 21.9852 2.01406C22.6522 2.68123 23.0626 3.35044 23.3692 4.13954C23.6658 4.90283 23.8687 5.77516 23.9269 7.05242C23.9853 8.33234 23.9991 8.741 23.9991 12C23.9991 15.259 23.9853 15.6677 23.9269 16.9476C23.8687 18.2248 23.6658 19.0972 23.3692 19.8605C23.0626 20.6496 22.6522 21.3188 21.9852 21.9859C21.318 22.6531 20.6488 23.0634 19.8598 23.37C19.0965 23.6667 18.2242 23.8695 16.947 23.9278C15.6671 23.9862 15.2585 24 11.9996 24C8.74069 24 8.33205 23.9862 7.05217 23.9278C5.77495 23.8695 4.90266 23.6667 4.1394 23.37C3.35032 23.0634 2.68113 22.6531 2.01399 21.9859C1.3469 21.3188 0.936596 20.6496 0.629986 19.8605C0.333331 19.0972 0.130465 18.2248 0.0722107 16.9476C0.0138134 15.6677 0 15.259 0 12C0 8.741 0.0138134 8.33234 0.0722107 7.05242C0.130465 5.77516 0.333331 4.90283 0.629986 4.13954C0.936596 3.35044 1.3469 2.68123 2.01399 2.01406C2.68113 1.34695 3.35032 0.936629 4.1394 0.630008C4.90266 0.333343 5.77495 0.13047 7.05217 0.0722133ZM19.0754 2.64518C18.6525 2.48085 18.0172 2.28536 16.8472 2.23201C15.5819 2.17427 15.2024 2.16203 11.9984 2.16203C8.79434 2.16203 8.4148 2.17427 7.1495 2.23201C5.97955 2.28536 5.34418 2.48085 4.92135 2.64518C4.36124 2.86287 3.96151 3.12291 3.54163 3.54285C3.1217 3.96274 2.86168 4.36249 2.644 4.92262C2.47966 5.34547 2.28418 5.98086 2.23083 7.15085C2.1731 8.4162 2.16086 8.79575 2.16086 11.9999C2.16086 15.204 2.1731 15.5836 2.23083 16.8489C2.28418 18.0189 2.47966 18.6543 2.644 19.0771C2.86168 19.6373 3.12175 20.037 3.54163 20.4569C3.96151 20.8768 4.36124 21.1369 4.92135 21.3546C5.34418 21.5189 5.97955 21.7144 7.1495 21.7677C8.41466 21.8255 8.7941 21.8377 11.9984 21.8377C15.2026 21.8377 15.5821 21.8255 16.8472 21.7677C18.0172 21.7144 18.6525 21.5189 19.0754 21.3546C19.6355 21.1369 20.0352 20.8768 20.4551 20.4569C20.875 20.037 21.135 19.6373 21.3527 19.0771C21.517 18.6543 21.7125 18.0189 21.7659 16.8489C21.8236 15.5836 21.8358 15.204 21.8358 11.9999C21.8358 8.79575 21.8236 8.4162 21.7659 7.15085C21.7125 5.98086 21.517 5.34547 21.3527 4.92262C21.135 4.36249 20.875 3.96274 20.4551 3.54285C20.0352 3.12291 19.6355 2.86287 19.0754 2.64518ZM11.9996 5.83749C8.59642 5.83749 5.83765 8.59636 5.83765 11.9997C5.83765 15.4029 8.59642 18.1618 11.9996 18.1618C15.4028 18.1618 18.1615 15.4029 18.1615 11.9997C18.1615 8.59636 15.4028 5.83749 11.9996 5.83749ZM7.99965 12.0001C7.99965 14.2093 9.79043 16.0001 11.9995 16.0001C14.2086 16.0001 15.9994 14.2093 15.9994 12.0001C15.9994 9.79096 14.2086 8.00011 11.9995 8.00011C9.79043 8.00011 7.99965 9.79096 7.99965 12.0001ZM18.4045 7.03435C19.1997 7.03435 19.8444 6.38967 19.8444 5.59437C19.8444 4.79907 19.1997 4.15435 18.4045 4.15435C17.6092 4.15435 16.9645 4.79907 16.9645 5.59437C16.9645 6.38967 17.6092 7.03435 18.4045 7.03435Z" fill="#071134"/>
</svg>
