<svg width="284" height="284" viewBox="0 0 284 284" fill="none" xmlns="http://www.w3.org/2000/svg">
<path d="M109.634 240.247C107.484 245.582 104.926 254.732 109.516 258.42C113.541 261.646 119.685 259.925 124.33 257.57C135.15 252.079 144.432 243.891 150.999 234.048C152.576 231.679 153.816 228.14 151.478 226.434C145.671 229.205 141.882 234.644 138.539 239.942C136.735 242.803 134.954 245.753 134.216 249.017C133.478 252.28 133.926 255.946 136.201 258.494C138.555 261.132 142.494 262.115 146.111 261.765C149.728 261.408 153.102 259.895 156.279 258.211C165.098 253.547 173.086 247.408 179.504 240.009C181.097 238.176 182.077 234.644 179.645 234.086C178.711 233.869 177.77 234.346 176.962 234.831C172.482 237.52 168.708 241.253 166.056 245.612C163.098 250.477 161.968 257.496 166.519 261.087C169.021 263.062 172.529 263.367 175.785 263.308C189.978 263.032 203.96 257.153 213.713 247.355C215.314 245.746 216.436 242.535 214.223 241.857C213.485 241.633 212.693 241.872 211.971 242.132C206.377 244.099 200.885 247.005 197.519 251.684C194.153 256.363 193.462 263.106 197.158 267.554C200.618 271.719 206.973 272.859 212.434 271.727C217.895 270.602 222.689 267.614 227.365 264.701C232.042 261.795 236.875 258.845 242.359 257.816" stroke="#ADADF2" stroke-width="1.11762" stroke-miterlimit="10"/>
<path d="M253.561 88.8604L264.613 63.3203L237.718 52.8247L226.665 78.3648L253.561 88.8604Z" stroke="#ED5221" stroke-width="1.11762" stroke-miterlimit="10"/>
<path d="M64.7938 73.6861C44.1977 67.3529 22.919 50.7749 17.4502 22" stroke="#ED5221" stroke-width="1.11762" stroke-miterlimit="10"/>
<path d="M56.2647 59.8203L65.1152 74.1258L48.7246 77.9704" stroke="#ED5221" stroke-width="1.11762" stroke-miterlimit="10"/>
<path d="M58.0548 131.272L77.9212 116.4L69.722 139.125L94.9944 138.179L74.2963 151.985L95.3318 165.329L70.0358 164.942L78.8 187.481L58.5726 173.048L51.7073 196.168L44.277 173.212L24.4106 188.084L32.6098 165.359L7.33738 166.306L28.0355 152.499L7 139.155L32.2959 139.542L23.5397 117.004L43.7591 131.428L50.6245 108.309L58.0548 131.272Z" stroke="#01928E" stroke-width="0.745079" stroke-miterlimit="10"/>
</svg>
